<mxfile host="app.diagrams.net" agent="Mozilla/5.0 (Windows NT 10.0; Win64; x64) AppleWebKit/537.36 (KHTML, like Gecko) Chrome/129.0.0.0 Safari/537.36" version="24.7.17">
  <diagram name="Page-1" id="ARr8byzagOsy6d4fog0Z">
    <mxGraphModel grid="1" page="1" gridSize="10" guides="1" tooltips="1" connect="1" arrows="1" fold="1" pageScale="1" pageWidth="827" pageHeight="1169" math="0" shadow="0">
      <root>
        <mxCell id="0" />
        <mxCell id="1" parent="0" />
        <mxCell id="3" value="User Interface" style="whiteSpace=wrap;strokeWidth=2;verticalAlign=top;" vertex="1" parent="1">
          <mxGeometry x="-640" y="120" width="1910" height="140" as="geometry" />
        </mxCell>
        <mxCell id="4" value="Listing Main UI" style="whiteSpace=wrap;strokeWidth=2;" vertex="1" parent="3">
          <mxGeometry x="407.99512626262623" y="42.34" width="222.09302325581396" height="60" as="geometry" />
        </mxCell>
        <mxCell id="5" value="User Main UI" style="whiteSpace=wrap;strokeWidth=2;" vertex="1" parent="3">
          <mxGeometry x="710.0014351029856" y="42.33548387096774" width="222.09302325581396" height="60" as="geometry" />
        </mxCell>
        <mxCell id="9nB9IDwyf26xXd7as6PN-29" value="Paypal UI" style="whiteSpace=wrap;strokeWidth=2;" vertex="1" parent="3">
          <mxGeometry x="104.56" y="42.34" width="195.44" height="60" as="geometry" />
        </mxCell>
        <mxCell id="9nB9IDwyf26xXd7as6PN-35" value="Transactions Main UI" style="whiteSpace=wrap;strokeWidth=2;" vertex="1" parent="3">
          <mxGeometry x="1330.0005780025701" y="42.33548387096775" width="222.09302325581396" height="60" as="geometry" />
        </mxCell>
        <mxCell id="9nB9IDwyf26xXd7as6PN-34" value="Review Miain UI" style="whiteSpace=wrap;strokeWidth=2;" vertex="1" parent="3">
          <mxGeometry x="1019.9987717042927" y="42.33548387096775" width="222.09302325581396" height="60" as="geometry" />
        </mxCell>
        <mxCell id="wAwoR_VUH3yuQv6zJydg-29" value="Offer Main UI" style="whiteSpace=wrap;strokeWidth=2;" vertex="1" parent="3">
          <mxGeometry x="1620.0005780025701" y="42.33548387096775" width="222.09302325581396" height="60" as="geometry" />
        </mxCell>
        <mxCell id="9nB9IDwyf26xXd7as6PN-36" value="Controller" style="whiteSpace=wrap;strokeWidth=2;verticalAlign=top;" vertex="1" parent="1">
          <mxGeometry x="-640" y="350" width="1910" height="180" as="geometry" />
        </mxCell>
        <mxCell id="9nB9IDwyf26xXd7as6PN-37" value="Listing Controller" style="whiteSpace=wrap;strokeWidth=2;" vertex="1" parent="9nB9IDwyf26xXd7as6PN-36">
          <mxGeometry x="389.99512626262623" y="51.42714285714287" width="200" height="77.14285714285715" as="geometry" />
        </mxCell>
        <mxCell id="9nB9IDwyf26xXd7as6PN-38" value="User Controller" style="whiteSpace=wrap;strokeWidth=2;" vertex="1" parent="9nB9IDwyf26xXd7as6PN-36">
          <mxGeometry x="700.0014351029856" y="54.43133640552996" width="200" height="77.14285714285715" as="geometry" />
        </mxCell>
        <mxCell id="9nB9IDwyf26xXd7as6PN-39" value="Paypal Controller" style="whiteSpace=wrap;strokeWidth=2;" vertex="1" parent="9nB9IDwyf26xXd7as6PN-36">
          <mxGeometry x="104.56" y="54.44" width="200" height="75.56" as="geometry" />
        </mxCell>
        <mxCell id="9nB9IDwyf26xXd7as6PN-40" value="Transaction Controller" style="whiteSpace=wrap;strokeWidth=2;" vertex="1" parent="9nB9IDwyf26xXd7as6PN-36">
          <mxGeometry x="1310.0005780025701" y="51.42276497695853" width="200" height="77.14285714285715" as="geometry" />
        </mxCell>
        <mxCell id="9nB9IDwyf26xXd7as6PN-41" value="Review Controller" style="whiteSpace=wrap;strokeWidth=2;" vertex="1" parent="9nB9IDwyf26xXd7as6PN-36">
          <mxGeometry x="1010" y="51.43" width="200" height="78.57" as="geometry" />
        </mxCell>
        <mxCell id="wAwoR_VUH3yuQv6zJydg-36" value="Offer Controller" style="whiteSpace=wrap;strokeWidth=2;" vertex="1" parent="9nB9IDwyf26xXd7as6PN-36">
          <mxGeometry x="1600.0005780025701" y="60.00276497695853" width="200" height="77.14285714285715" as="geometry" />
        </mxCell>
        <mxCell id="9nB9IDwyf26xXd7as6PN-42" value="Object" style="whiteSpace=wrap;strokeWidth=2;verticalAlign=top;" vertex="1" parent="1">
          <mxGeometry x="-640" y="630" width="1880" height="180" as="geometry" />
        </mxCell>
        <mxCell id="9nB9IDwyf26xXd7as6PN-48" value="Database" style="whiteSpace=wrap;strokeWidth=2;verticalAlign=top;" vertex="1" parent="1">
          <mxGeometry x="-640" y="930" width="1870" height="170" as="geometry" />
        </mxCell>
        <mxCell id="9nB9IDwyf26xXd7as6PN-53" value="Database" style="whiteSpace=wrap;strokeWidth=2;" vertex="1" parent="9nB9IDwyf26xXd7as6PN-48">
          <mxGeometry x="793.3364937628417" y="48.57237327188941" width="283.33333333333337" height="72.85714285714286" as="geometry" />
        </mxCell>
        <mxCell id="9nB9IDwyf26xXd7as6PN-54" style="edgeStyle=orthogonalEdgeStyle;rounded=0;orthogonalLoop=1;jettySize=auto;html=1;exitX=0.5;exitY=1;exitDx=0;exitDy=0;" edge="1" parent="1" source="9nB9IDwyf26xXd7as6PN-29" target="9nB9IDwyf26xXd7as6PN-39">
          <mxGeometry relative="1" as="geometry" />
        </mxCell>
        <mxCell id="9nB9IDwyf26xXd7as6PN-55" style="edgeStyle=orthogonalEdgeStyle;rounded=0;orthogonalLoop=1;jettySize=auto;html=1;exitX=0.5;exitY=1;exitDx=0;exitDy=0;entryX=0.5;entryY=0;entryDx=0;entryDy=0;" edge="1" parent="1" source="4" target="9nB9IDwyf26xXd7as6PN-37">
          <mxGeometry relative="1" as="geometry" />
        </mxCell>
        <mxCell id="9nB9IDwyf26xXd7as6PN-56" style="edgeStyle=orthogonalEdgeStyle;rounded=0;orthogonalLoop=1;jettySize=auto;html=1;exitX=0.5;exitY=1;exitDx=0;exitDy=0;entryX=0.5;entryY=0;entryDx=0;entryDy=0;" edge="1" parent="1" source="5" target="9nB9IDwyf26xXd7as6PN-38">
          <mxGeometry relative="1" as="geometry" />
        </mxCell>
        <mxCell id="9nB9IDwyf26xXd7as6PN-57" style="edgeStyle=orthogonalEdgeStyle;rounded=0;orthogonalLoop=1;jettySize=auto;html=1;exitX=0.5;exitY=1;exitDx=0;exitDy=0;entryX=0.5;entryY=0;entryDx=0;entryDy=0;" edge="1" parent="1" source="9nB9IDwyf26xXd7as6PN-34" target="9nB9IDwyf26xXd7as6PN-41">
          <mxGeometry relative="1" as="geometry" />
        </mxCell>
        <mxCell id="9nB9IDwyf26xXd7as6PN-58" style="edgeStyle=orthogonalEdgeStyle;rounded=0;orthogonalLoop=1;jettySize=auto;html=1;exitX=0.5;exitY=1;exitDx=0;exitDy=0;entryX=0.5;entryY=0;entryDx=0;entryDy=0;" edge="1" parent="1" source="9nB9IDwyf26xXd7as6PN-35" target="9nB9IDwyf26xXd7as6PN-40">
          <mxGeometry relative="1" as="geometry" />
        </mxCell>
        <mxCell id="3EMCVun55IqncbKja6-U-29" style="edgeStyle=orthogonalEdgeStyle;rounded=0;orthogonalLoop=1;jettySize=auto;html=1;exitX=0.5;exitY=1;exitDx=0;exitDy=0;entryX=0.5;entryY=0;entryDx=0;entryDy=0;" edge="1" parent="1" source="wAwoR_VUH3yuQv6zJydg-29" target="wAwoR_VUH3yuQv6zJydg-36">
          <mxGeometry relative="1" as="geometry">
            <mxPoint x="1121" y="226" as="sourcePoint" />
            <mxPoint x="1080" y="410" as="targetPoint" />
          </mxGeometry>
        </mxCell>
        <mxCell id="3EMCVun55IqncbKja6-U-38" value="Listing" style="whiteSpace=wrap;strokeWidth=2;" vertex="1" parent="1">
          <mxGeometry x="-250" y="685" width="200" height="70" as="geometry" />
        </mxCell>
        <mxCell id="rTDWzOhS_OqG2cPCv-m0-23" style="edgeStyle=orthogonalEdgeStyle;rounded=0;orthogonalLoop=1;jettySize=auto;html=1;exitX=0.5;exitY=1;exitDx=0;exitDy=0;entryX=0.19;entryY=-0.041;entryDx=0;entryDy=0;entryPerimeter=0;" edge="1" parent="1" source="rTDWzOhS_OqG2cPCv-m0-5" target="9nB9IDwyf26xXd7as6PN-53">
          <mxGeometry relative="1" as="geometry">
            <mxPoint x="224" y="979" as="targetPoint" />
            <Array as="points">
              <mxPoint x="-440" y="900" />
              <mxPoint x="207" y="900" />
            </Array>
          </mxGeometry>
        </mxCell>
        <mxCell id="rTDWzOhS_OqG2cPCv-m0-5" value="Report" style="whiteSpace=wrap;strokeWidth=2;" vertex="1" parent="1">
          <mxGeometry x="-540" y="685" width="200" height="70" as="geometry" />
        </mxCell>
        <mxCell id="rTDWzOhS_OqG2cPCv-m0-25" style="edgeStyle=orthogonalEdgeStyle;rounded=0;orthogonalLoop=1;jettySize=auto;html=1;exitX=0.5;exitY=1;exitDx=0;exitDy=0;entryX=0.5;entryY=0;entryDx=0;entryDy=0;" edge="1" parent="1" source="rTDWzOhS_OqG2cPCv-m0-6" target="9nB9IDwyf26xXd7as6PN-53">
          <mxGeometry relative="1" as="geometry" />
        </mxCell>
        <mxCell id="rTDWzOhS_OqG2cPCv-m0-6" value="User" style="whiteSpace=wrap;strokeWidth=2;" vertex="1" parent="1">
          <mxGeometry x="69.99512626262617" y="684.9971428571429" width="200" height="77.14285714285715" as="geometry" />
        </mxCell>
        <mxCell id="rTDWzOhS_OqG2cPCv-m0-7" value="Review" style="whiteSpace=wrap;strokeWidth=2;" vertex="1" parent="1">
          <mxGeometry x="379.9951262626262" y="681.4271428571428" width="200" height="77.14285714285715" as="geometry" />
        </mxCell>
        <mxCell id="rTDWzOhS_OqG2cPCv-m0-13" style="edgeStyle=orthogonalEdgeStyle;rounded=0;orthogonalLoop=1;jettySize=auto;html=1;entryX=0.5;entryY=0;entryDx=0;entryDy=0;exitX=0.5;exitY=1;exitDx=0;exitDy=0;" edge="1" parent="1" source="9nB9IDwyf26xXd7as6PN-37" target="3EMCVun55IqncbKja6-U-38">
          <mxGeometry relative="1" as="geometry">
            <mxPoint x="-180" y="481" as="sourcePoint" />
            <mxPoint x="-441" y="662" as="targetPoint" />
          </mxGeometry>
        </mxCell>
        <mxCell id="rTDWzOhS_OqG2cPCv-m0-27" style="edgeStyle=orthogonalEdgeStyle;rounded=0;orthogonalLoop=1;jettySize=auto;html=1;exitX=0.5;exitY=1;exitDx=0;exitDy=0;entryX=0.75;entryY=0;entryDx=0;entryDy=0;" edge="1" parent="1" source="rTDWzOhS_OqG2cPCv-m0-16" target="9nB9IDwyf26xXd7as6PN-53">
          <mxGeometry relative="1" as="geometry">
            <Array as="points">
              <mxPoint x="770" y="880" />
              <mxPoint x="366" y="880" />
            </Array>
          </mxGeometry>
        </mxCell>
        <mxCell id="rTDWzOhS_OqG2cPCv-m0-16" value="Transaction" style="whiteSpace=wrap;strokeWidth=2;" vertex="1" parent="1">
          <mxGeometry x="669.9951262626262" y="681.4271428571428" width="200" height="77.14285714285715" as="geometry" />
        </mxCell>
        <mxCell id="rTDWzOhS_OqG2cPCv-m0-17" value="Offer" style="whiteSpace=wrap;strokeWidth=2;" vertex="1" parent="1">
          <mxGeometry x="959.9951262626262" y="677.8571428571428" width="200" height="77.14285714285715" as="geometry" />
        </mxCell>
        <mxCell id="rTDWzOhS_OqG2cPCv-m0-18" style="edgeStyle=orthogonalEdgeStyle;rounded=0;orthogonalLoop=1;jettySize=auto;html=1;exitX=0.25;exitY=1;exitDx=0;exitDy=0;entryX=0.5;entryY=0;entryDx=0;entryDy=0;" edge="1" parent="1" source="9nB9IDwyf26xXd7as6PN-37" target="rTDWzOhS_OqG2cPCv-m0-5">
          <mxGeometry relative="1" as="geometry" />
        </mxCell>
        <mxCell id="rTDWzOhS_OqG2cPCv-m0-19" style="edgeStyle=orthogonalEdgeStyle;rounded=0;orthogonalLoop=1;jettySize=auto;html=1;exitX=0.5;exitY=1;exitDx=0;exitDy=0;" edge="1" parent="1" source="9nB9IDwyf26xXd7as6PN-38" target="rTDWzOhS_OqG2cPCv-m0-6">
          <mxGeometry relative="1" as="geometry" />
        </mxCell>
        <mxCell id="rTDWzOhS_OqG2cPCv-m0-20" style="edgeStyle=orthogonalEdgeStyle;rounded=0;orthogonalLoop=1;jettySize=auto;html=1;exitX=0.5;exitY=1;exitDx=0;exitDy=0;entryX=0.5;entryY=0;entryDx=0;entryDy=0;" edge="1" parent="1" source="9nB9IDwyf26xXd7as6PN-41" target="rTDWzOhS_OqG2cPCv-m0-7">
          <mxGeometry relative="1" as="geometry" />
        </mxCell>
        <mxCell id="rTDWzOhS_OqG2cPCv-m0-21" style="edgeStyle=orthogonalEdgeStyle;rounded=0;orthogonalLoop=1;jettySize=auto;html=1;exitX=0.5;exitY=1;exitDx=0;exitDy=0;entryX=0.553;entryY=0.01;entryDx=0;entryDy=0;entryPerimeter=0;" edge="1" parent="1" source="9nB9IDwyf26xXd7as6PN-40" target="rTDWzOhS_OqG2cPCv-m0-16">
          <mxGeometry relative="1" as="geometry" />
        </mxCell>
        <mxCell id="rTDWzOhS_OqG2cPCv-m0-22" style="edgeStyle=orthogonalEdgeStyle;rounded=0;orthogonalLoop=1;jettySize=auto;html=1;exitX=0.5;exitY=1;exitDx=0;exitDy=0;" edge="1" parent="1" source="wAwoR_VUH3yuQv6zJydg-36" target="rTDWzOhS_OqG2cPCv-m0-17">
          <mxGeometry relative="1" as="geometry" />
        </mxCell>
        <mxCell id="rTDWzOhS_OqG2cPCv-m0-24" style="edgeStyle=orthogonalEdgeStyle;rounded=0;orthogonalLoop=1;jettySize=auto;html=1;exitX=0.5;exitY=1;exitDx=0;exitDy=0;entryX=0.328;entryY=-0.054;entryDx=0;entryDy=0;entryPerimeter=0;" edge="1" parent="1" source="3EMCVun55IqncbKja6-U-38" target="9nB9IDwyf26xXd7as6PN-53">
          <mxGeometry relative="1" as="geometry">
            <mxPoint x="260" y="970" as="targetPoint" />
            <Array as="points">
              <mxPoint x="-150" y="880" />
              <mxPoint x="246" y="880" />
            </Array>
          </mxGeometry>
        </mxCell>
        <mxCell id="rTDWzOhS_OqG2cPCv-m0-26" style="edgeStyle=orthogonalEdgeStyle;rounded=0;orthogonalLoop=1;jettySize=auto;html=1;exitX=0.5;exitY=1;exitDx=0;exitDy=0;entryX=0.623;entryY=-0.017;entryDx=0;entryDy=0;entryPerimeter=0;" edge="1" parent="1" source="rTDWzOhS_OqG2cPCv-m0-7" target="9nB9IDwyf26xXd7as6PN-53">
          <mxGeometry relative="1" as="geometry" />
        </mxCell>
        <mxCell id="rTDWzOhS_OqG2cPCv-m0-28" style="edgeStyle=orthogonalEdgeStyle;rounded=0;orthogonalLoop=1;jettySize=auto;html=1;exitX=0.5;exitY=1;exitDx=0;exitDy=0;entryX=0.905;entryY=0.02;entryDx=0;entryDy=0;entryPerimeter=0;" edge="1" parent="1">
          <mxGeometry relative="1" as="geometry">
            <mxPoint x="1064.2451262626264" y="739.9999999999998" as="sourcePoint" />
            <mxPoint x="414.00316042950817" y="965.0295161290323" as="targetPoint" />
            <Array as="points">
              <mxPoint x="1064.25" y="895" />
              <mxPoint x="414.25" y="895" />
            </Array>
          </mxGeometry>
        </mxCell>
        <mxCell id="rTDWzOhS_OqG2cPCv-m0-29" style="edgeStyle=orthogonalEdgeStyle;rounded=0;orthogonalLoop=1;jettySize=auto;html=1;exitX=0.5;exitY=1;exitDx=0;exitDy=0;entryX=0.433;entryY=0.033;entryDx=0;entryDy=0;entryPerimeter=0;" edge="1" parent="1" source="9nB9IDwyf26xXd7as6PN-39" target="rTDWzOhS_OqG2cPCv-m0-16">
          <mxGeometry relative="1" as="geometry">
            <Array as="points">
              <mxPoint x="-435" y="560" />
              <mxPoint x="757" y="560" />
            </Array>
          </mxGeometry>
        </mxCell>
      </root>
    </mxGraphModel>
  </diagram>
</mxfile>
